<svg width="13" height="15" viewBox="0 0 13 15" fill="none" xmlns="http://www.w3.org/2000/svg">
<path d="M4.94393 2.32345C5.19254 0.514308 7.80746 0.514308 8.05607 2.32345V2.32345C8.19567 3.33932 9.25543 3.95116 10.205 3.56413V3.56413C11.8961 2.87486 13.2035 5.13945 11.7611 6.25932V6.25932C10.9511 6.88815 10.9511 8.11185 11.7611 8.74068V8.74068C13.2035 9.86055 11.8961 12.1251 10.205 11.4359V11.4359C9.25543 11.0488 8.19567 11.6607 8.05607 12.6765V12.6765C7.80746 14.4857 5.19254 14.4857 4.94393 12.6765V12.6765C4.80433 11.6607 3.74458 11.0488 2.79501 11.4359V11.4359C1.10394 12.1251 -0.203515 9.86055 1.23894 8.74068V8.74068C2.04891 8.11185 2.04891 6.88815 1.23894 6.25932V6.25932C-0.203515 5.13944 1.10394 2.87486 2.79501 3.56413V3.56413C3.74458 3.95116 4.80433 3.33931 4.94393 2.32345V2.32345Z" fill="#C59D5F"/>
</svg>
